<svg width="481" height="480" xmlns="http://www.w3.org/2000/svg" xmlns:xlink="http://www.w3.org/1999/xlink" xml:space="preserve" overflow="hidden"><g transform="translate(-705 -92)"><g><g><g><g><path d="M804.354 311.309 911.548 311.309 936.284 288.717 965.143 343.204 1024.92 202.334 1082.63 401.679 1109.44 312.639 1257.86 312.639" stroke="#203864" stroke-width="13.7049" stroke-linecap="round" stroke-linejoin="round" stroke-miterlimit="10" stroke-opacity="1" fill="none" fill-rule="evenodd" transform="matrix(1 0 0 1.48415 -87.6017 -119.98)"/><path d="M804.354 304.499C804.354 233.212 907.214 175.423 1034.1 175.423 1160.98 175.423 1263.85 233.212 1263.85 304.499 1263.85 375.785 1160.98 433.574 1034.1 433.574 907.214 433.574 804.354 375.785 804.354 304.499Z" stroke="#000000" stroke-width="13.7049" stroke-linecap="butt" stroke-linejoin="miter" stroke-miterlimit="8" stroke-opacity="1" fill="none" fill-rule="evenodd" transform="matrix(1 0 0 1.48415 -87.6017 -119.98)"/><path d="M1066.49 247.479 1107.14 231.775 1131.92 205.324 1156.05 232.187 1196.07 247.892 1156.05 263.184 1131.92 290.046 1107.14 263.184 1066.49 247.479Z" fill="#22B3E0" fill-rule="evenodd" fill-opacity="1" transform="matrix(1 0 0 1.48415 -87.6017 -119.98)"/></g></g></g></g></g></svg>